<?xml version="1.0" encoding="UTF-8"?>
<svg version="1.1" xmlns="http://www.w3.org/2000/svg" width="655" height="533">
<path d="M0 0 C4.77816367 2.04430019 9.14061154 4.67141914 13.5625 7.375 C14.80869986 8.11521707 16.05610785 8.8534038 17.3046875 9.58959961 C19.7637642 11.04384897 22.21550511 12.50925519 24.66064453 13.98681641 C28.22943614 16.13831923 31.82039672 18.24829124 35.42041016 20.34692383 C37.42838457 21.52063886 39.42769654 22.70798626 41.42578125 23.8984375 C43.75829519 25.28275974 46.10185578 26.60595885 48.48046875 27.9140625 C49.53878906 28.49929687 50.59710937 29.08453125 51.6875 29.6875 C52.57824219 30.16574219 53.46898437 30.64398438 54.38671875 31.13671875 C58.08907054 33.77651218 60.88124892 35.88142126 63 40 C63.87853171 45.49228829 63.77258288 50.92746095 63.69140625 56.4765625 C63.6878254 58.09125436 63.68647252 59.70595255 63.6872406 61.32064819 C63.68256228 64.69496115 63.65782022 68.06831187 63.61743164 71.44238281 C63.56638016 75.7611752 63.55499183 80.07891517 63.55726719 84.39797401 C63.55645052 87.7283833 63.53998348 91.05856386 63.51826286 94.38889694 C63.5087382 95.98124844 63.50280892 97.57362575 63.50058174 99.16600418 C63.49405696 101.39187822 63.46775858 103.6166494 63.43579102 105.84228516 C63.41863792 107.73921616 63.41863792 107.73921616 63.40113831 109.67446899 C62.83464805 114.37080657 61.18216657 116.92345656 57.7265625 120.0703125 C54.70047427 122.21198526 51.60695059 124.05839572 48.375 125.875 C47.7552832 126.22522217 47.13556641 126.57544434 46.49707031 126.9362793 C42.9383633 128.94068756 39.35281818 130.88839432 35.75 132.8125 C29.91038831 135.96554477 24.29554239 139.46715556 18.64941406 142.94995117 C-1.36875735 155.2546404 -1.36875735 155.2546404 -8 154 C-10.38989258 152.88208008 -10.38989258 152.88208008 -13.01953125 151.39453125 C-13.98898682 150.84998291 -14.95844238 150.30543457 -15.95727539 149.74438477 C-16.96137451 149.16873779 -17.96547363 148.59309082 -19 148 C-20.45297485 147.16843384 -20.45297485 147.16843384 -21.93530273 146.32006836 C-29.88030346 141.75685052 -29.88030346 141.75685052 -33.74609375 139.50390625 C-44.02993537 133.61369523 -53.40913129 131.14420589 -65.40234375 133.46484375 C-73.86634093 136.29734974 -80.44838646 142.46139007 -85 150 C-89.30194859 158.63750614 -89.69623374 166.82694391 -87 176 C-83.95521994 184.31224957 -78.67458092 190.91745021 -70.75 194.9375 C-65.62091185 197.28700467 -61.54956738 198.20359416 -55.875 198.3125 C-54.61429688 198.34988281 -53.35359375 198.38726562 -52.0546875 198.42578125 C-43.78846057 198.0085201 -36.16687175 192.56418079 -29.125 188.625 C-28.24948486 188.14184326 -27.37396973 187.65868652 -26.47192383 187.16088867 C-22.79262124 185.12858676 -19.12246473 183.08810171 -15.50390625 180.94921875 C-14.57449219 180.40910156 -13.64507812 179.86898437 -12.6875 179.3125 C-11.92824219 178.85488281 -11.16898438 178.39726562 -10.38671875 177.92578125 C-6.16811628 176.28943299 -2.80740836 176.24692843 1.41235352 178.00512695 C4.20036277 179.42595182 6.9132702 180.93856024 9.625 182.5 C11.10347412 183.32975342 11.10347412 183.32975342 12.61181641 184.17626953 C18.5989774 187.55766037 24.49917369 191.0498089 30.3046875 194.734375 C33.46744115 196.71132872 36.70107376 198.55084908 39.9453125 200.390625 C41.02119629 201.00437988 42.09708008 201.61813477 43.20556641 202.25048828 C45.36132634 203.47710194 47.52229759 204.69461276 49.68896484 205.90185547 C50.68879395 206.47307129 51.68862305 207.04428711 52.71875 207.6328125 C54.06356445 208.38908936 54.06356445 208.38908936 55.43554688 209.16064453 C59.86339259 212.3365194 62.65014473 215.12384634 63.64837646 220.47702026 C63.66339203 222.39274338 63.66339203 222.39274338 63.67871094 224.34716797 C63.69068512 225.05695801 63.7026593 225.76674805 63.71499634 226.49804688 C63.74703485 228.82999052 63.74238154 231.16006178 63.734375 233.4921875 C63.7428314 235.12355179 63.75247354 236.75491033 63.76324463 238.38626099 C63.77961232 241.80085516 63.77694925 245.21480072 63.76171875 248.62939453 C63.7444484 252.99005595 63.78155424 257.34830623 63.83398056 261.70861626 C63.86717885 265.07694064 63.86764302 268.44469187 63.85883331 271.81314468 C63.85919161 273.41982091 63.87038525 275.02653484 63.89293671 276.63305283 C64.06445534 290.72240242 64.06445534 290.72240242 59.60424805 295.9362793 C56.98038081 298.38049312 54.30510225 300.37663636 51.0625 301.9375 C50.11117188 302.41960937 49.15984375 302.90171875 48.1796875 303.3984375 C47.13039063 303.92695313 46.08109375 304.45546875 45 305 C42.55374242 306.34078995 40.11696402 307.69207999 37.6875 309.0625 C36.70257568 309.61574951 36.70257568 309.61574951 35.69775391 310.18017578 C27.70556457 314.69295045 19.82400169 319.39444057 11.93359375 324.08203125 C11.07878418 324.5817041 10.22397461 325.08137695 9.34326172 325.59619141 C7.91923831 326.44929982 6.5130748 327.33465694 5.14501953 328.27490234 C0.2080154 331.55710918 -4.28422421 332.13095654 -10 331 C-14.11393121 329.26926675 -17.79565427 327.00624456 -21.5625 324.625 C-23.13849976 323.6664209 -23.13849976 323.6664209 -24.74633789 322.68847656 C-26.86103901 321.40187065 -28.97077861 320.10707042 -31.07519531 318.80371094 C-34.99247633 316.38794532 -38.96132307 314.06691319 -42.9375 311.75 C-44.27374271 310.96015154 -45.60968296 310.16979114 -46.9453125 309.37890625 C-49.84096113 307.67043083 -52.75501544 305.99811958 -55.6796875 304.33984375 C-56.45449463 303.89608398 -57.22930176 303.45232422 -58.02758789 302.99511719 C-59.50385236 302.15027559 -60.98455166 301.31311575 -62.47045898 300.48535156 C-67.18549748 297.77213643 -70.50819975 294.9836005 -73 290 C-73.09713852 288.66415065 -73.13545555 287.32373624 -73.1418457 285.984375 C-73.15239738 284.74167847 -73.15239738 284.74167847 -73.16316223 283.47387695 C-73.16732651 282.57499756 -73.17149078 281.67611816 -73.17578125 280.75 C-73.19900053 278.84243714 -73.22311869 276.93488505 -73.24804688 275.02734375 C-73.28299769 272.02352925 -73.31240952 269.02010528 -73.32592773 266.01611328 C-73.34153854 263.11442504 -73.38185264 260.21388069 -73.42578125 257.3125 C-73.42291862 255.98847168 -73.42291862 255.98847168 -73.41999817 254.63769531 C-73.59070112 245.80096364 -76.55732747 236.34952546 -83 230 C-86.2063118 227.74254795 -89.53060569 225.82213718 -93 224 C-93.62447021 223.65235596 -94.24894043 223.30471191 -94.89233398 222.9465332 C-101.73023259 219.87569654 -112.53502219 220.91211311 -119.49609375 223.09765625 C-122.46328463 224.57534095 -125.21328404 226.20656894 -128 228 C-130.03956883 229.17033025 -132.08126433 230.33696157 -134.125 231.5 C-137.05110951 233.23028815 -139.96488471 234.97869195 -142.87109375 236.7421875 C-143.75925781 237.28101563 -144.64742188 237.81984375 -145.5625 238.375 C-146.34753906 238.85710937 -147.13257813 239.33921875 -147.94140625 239.8359375 C-151.09063469 241.61671563 -153.75033678 242.17617278 -157.3125 242.25 C-158.42044922 242.28867187 -158.42044922 242.28867187 -159.55078125 242.328125 C-173.61919401 240.44336157 -191.11063339 225.72530865 -203.17724609 218.64941406 C-205.6916812 217.1801593 -208.21321009 215.72430108 -210.73828125 214.2734375 C-212.07574027 213.49516864 -213.41299866 212.71655485 -214.75 211.9375 C-216.44382812 210.96103516 -216.44382812 210.96103516 -218.171875 209.96484375 C-221.23919506 207.8338189 -222.95494992 206.12501563 -225 203 C-225.5146637 199.59181213 -225.5146637 199.59181213 -225.53344727 195.64282227 C-225.54206284 194.9202121 -225.55067841 194.19760193 -225.55955505 193.45309448 C-225.58218421 191.07382987 -225.57548219 188.69574614 -225.56640625 186.31640625 C-225.5716435 184.65640413 -225.57792036 182.99640499 -225.58518982 181.33641052 C-225.59558854 177.8604429 -225.59104081 174.38488479 -225.57641602 170.90893555 C-225.55923488 166.46217281 -225.58271676 162.01670303 -225.61790562 157.57008457 C-225.6399047 154.14271032 -225.63843206 150.7156442 -225.6301403 147.28822136 C-225.62932203 145.6492159 -225.63616178 144.01018754 -225.65091133 142.37124825 C-225.66840379 140.0755568 -225.65377962 137.78217243 -225.63110352 135.48657227 C-225.63014175 134.18261002 -225.62917999 132.87864777 -225.62818909 131.53517151 C-224.65404241 126.05310307 -221.83453683 123.29354139 -217.28369141 120.0847168 C-216.31608887 119.54500244 -215.34848633 119.00528809 -214.3515625 118.44921875 C-213.27076416 117.83747803 -212.18996582 117.2257373 -211.07641602 116.59545898 C-209.93744873 115.96583252 -208.79848145 115.33620605 -207.625 114.6875 C-206.44447561 114.02355834 -205.2647098 113.35826617 -204.08569336 112.69165039 C-201.7701915 111.38264321 -199.4525957 110.07770557 -197.13330078 108.77539062 C-193.23279749 106.56528778 -189.38926255 104.27223775 -185.5625 101.9375 C-180.57290168 98.90829957 -175.51940781 96.03370323 -170.3671875 93.2890625 C-167.93811171 92.00476272 -167.93811171 92.00476272 -165.48046875 90.37109375 C-161.31321089 88.06761736 -157.62935133 88.20915248 -153 89 C-147.14783169 91.21742315 -141.88015364 94.31809347 -136.75 97.875 C-124.03834423 106.44056016 -112.67328909 111.7974956 -97 109 C-88.99037261 106.50047591 -82.51643836 101.04121794 -78 94 C-74.65372855 87.18617838 -73.4330777 81.37464051 -73.53125 73.828125 C-73.52420044 72.90207458 -73.51715088 71.97602417 -73.5098877 71.02191162 C-73.48804783 68.09765211 -73.49081468 65.17431607 -73.5 62.25 C-73.51206883 58.37971732 -73.49833389 54.51078896 -73.46875 50.640625 C-73.48572937 49.32327362 -73.48572937 49.32327362 -73.50305176 47.97930908 C-73.45798018 42.49644549 -72.71373261 39.30768591 -69 35 C-66.97680664 33.29492188 -66.97680664 33.29492188 -64.84765625 31.96875 C-64.05762207 31.47246094 -63.26758789 30.97617188 -62.45361328 30.46484375 C-58.47633732 28.09035064 -54.47657997 25.76787614 -50.4375 23.5 C-48.60230511 22.46062265 -46.76769436 21.42021337 -44.93359375 20.37890625 C-43.97565918 19.83508301 -43.01772461 19.29125977 -42.03076172 18.73095703 C-36.66711544 15.66762111 -31.33355706 12.55284039 -26 9.4375 C-24.97962646 8.84195313 -23.95925293 8.24640625 -22.90795898 7.6328125 C-17.63792914 4.57552165 -17.63792914 4.57552165 -12.46655273 1.35717773 C-8.25226572 -0.96166038 -4.67371594 -0.90652274 0 0 Z " fill="#142F23" transform="translate(485,103)"/>
<path d="M0 0 C3.1932267 1.35208698 6.12455001 3.10409653 9.10009766 4.87792969 C12.23096796 6.72700189 15.39850242 8.51155335 18.55957031 10.30834961 C21.32291954 11.8809296 24.08195502 13.46083475 26.83984375 15.04296875 C29.87019898 16.78099097 32.90247833 18.51529276 35.94140625 20.23828125 C38.17863381 21.50833421 40.41192924 22.78534677 42.640625 24.0703125 C45.09942006 25.48269013 47.56669736 26.8686047 50.046875 28.2421875 C51.40667952 29.0148696 52.76606403 29.78829138 54.125 30.5625 C54.75325684 30.90240967 55.38151367 31.24231934 56.02880859 31.5925293 C60.52200401 34.19182264 63.12330752 37.21583119 65 42 C65.51091425 45.16304356 65.4883117 48.2512015 65.43359375 51.44921875 C65.44320518 53.28580811 65.45297589 55.12239663 65.46289062 56.95898438 C65.45433224 59.81772821 65.43758783 62.67624334 65.4152832 65.53491211 C65.34852081 78.18802667 65.53739523 88.68611299 73.1875 99.375 C81.18134505 106.83592205 89.66588477 110.18204527 100.53125 110.265625 C108.67463678 109.38943781 114.82403583 106.22647223 121.875 102.25 C122.80441406 101.73695313 123.73382813 101.22390625 124.69140625 100.6953125 C130.17646724 97.6506064 135.57060542 94.48278463 140.91064453 91.19042969 C144.8595927 88.94047979 148.55169615 88.21311593 153 89 C165.92806328 93.85339253 177.9331918 102.5219492 189.70532227 109.63452148 C193.98381773 112.21629655 198.26192545 114.73788734 202.6875 117.0625 C213.66986706 123.00480059 213.66986706 123.00480059 217 128 C217.28088379 131.16094971 217.28088379 131.16094971 217.32226562 135.11425781 C217.33219543 135.83496964 217.34212524 136.55568146 217.35235596 137.29823303 C217.38157061 139.68323591 217.39519937 142.06797256 217.40625 144.453125 C217.41775739 146.11358648 217.42927281 147.77404791 217.4407959 149.43450928 C217.46180915 152.9181034 217.47349809 156.40160533 217.48046875 159.88525391 C217.49142324 164.33875987 217.53944434 168.79103812 217.59641266 173.2441597 C217.63375732 176.6758168 217.64408144 180.10718126 217.6471405 183.53902435 C217.65317656 185.18004807 217.66917679 186.82106767 217.69551086 188.46189117 C217.91070111 202.90368583 217.91070111 202.90368583 214.13549805 207.4362793 C211.45113983 209.88749179 208.50528781 211.8245432 205.3125 213.5625 C204.25804687 214.14644531 203.20359375 214.73039063 202.1171875 215.33203125 C201.08851563 215.88246094 200.05984375 216.43289063 199 217 C197.31221944 217.91615 195.62471413 218.83280727 193.9375 219.75 C192.60138672 220.47316406 192.60138672 220.47316406 191.23828125 221.2109375 C187.00500901 223.54970552 182.8130455 225.9563719 178.625 228.375 C177.80265869 228.84824707 176.98031738 229.32149414 176.13305664 229.80908203 C172.43725999 231.94935193 168.77534565 234.11137863 165.203125 236.453125 C153.54651234 244.06002246 153.54651234 244.06002246 147 243 C139.95161594 240.48604532 133.62793748 236.44655285 127.1875 232.6875 C126.06279297 232.03587891 124.93808594 231.38425781 123.77929688 230.71289062 C117.92821184 227.31647345 112.1092722 223.87234688 106.31616211 220.37817383 C104.05444104 219.03239376 101.77393227 217.72830992 99.48046875 216.4375 C98.76826172 216.03273438 98.05605469 215.62796875 97.32226562 215.2109375 C95.8842875 214.39525 94.44143511 213.58810309 92.99414062 212.7890625 C92.28837891 212.38429688 91.58261719 211.97953125 90.85546875 211.5625 C89.92190552 211.03849609 89.92190552 211.03849609 88.96948242 210.50390625 C85.54636342 207.88999612 82.51462704 205.31033826 81.55677795 201.01022339 C81.39317857 198.6996947 81.38607626 196.43687832 81.43359375 194.12109375 C81.42514183 192.84831322 81.42514183 192.84831322 81.41651917 191.54981995 C81.40012683 188.84514684 81.41552304 186.1421145 81.4375 183.4375 C81.80518836 161.76979714 81.80518836 161.76979714 71.984375 142.9375 C64.77268814 135.89616795 57.60883693 133.07533019 47.6875 132.625 C36.79539522 132.95124076 27.78787894 138.55422538 18.6875 144.0625 C16.60902039 145.30497177 14.52962185 146.54590787 12.44921875 147.78515625 C11.54518311 148.33051025 10.64114746 148.87586426 9.7097168 149.43774414 C3.60129157 152.95948601 -0.91521818 155.47577342 -8 154 C-12.48286925 152.03930172 -16.58548028 149.55802843 -20.75 147 C-21.91573467 146.30307102 -23.08248945 145.60784561 -24.25024414 144.91430664 C-27.51541732 142.96757439 -30.75975383 140.98798226 -34 139 C-35.13381104 138.30753174 -35.13381104 138.30753174 -36.29052734 137.60107422 C-38.97578568 135.95859464 -41.65223891 134.30306995 -44.3203125 132.6328125 C-47.10762698 130.93441971 -49.9398503 129.36170675 -52.8125 127.8125 C-59.32979911 124.29296875 -59.32979911 124.29296875 -62.375 122.5 C-62.96023437 122.1596875 -63.54546875 121.819375 -64.1484375 121.46875 C-68.19003387 118.26275794 -70.70910924 115.57935746 -71.64164734 110.51625061 C-71.64864151 109.23608566 -71.65563568 107.95592072 -71.6628418 106.63696289 C-71.67320969 105.92556656 -71.68357758 105.21417023 -71.69425964 104.48121643 C-71.72122351 102.14443203 -71.71169203 99.80953876 -71.69921875 97.47265625 C-71.70513231 95.83889751 -71.71238098 94.2051431 -71.72090149 92.57139587 C-71.73276354 89.15259165 -71.72610563 85.73443919 -71.70678711 82.31567383 C-71.68391217 77.94615394 -71.71067172 73.57858028 -71.75184917 69.20925236 C-71.77749332 65.83669451 -71.77482939 62.4645982 -71.76395607 59.09197807 C-71.76247459 57.48170645 -71.77009903 55.87139854 -71.78720665 54.26121712 C-71.91294132 40.13395857 -71.91294132 40.13395857 -68.34057617 35.69555664 C-65.4359732 33.07475357 -62.2391369 31.05285001 -58.7890625 29.2109375 C-58.21723236 28.89975983 -57.64540222 28.58858215 -57.0562439 28.26797485 C-55.25282157 27.28993136 -53.43973467 26.3318601 -51.625 25.375 C-49.23970354 24.09574203 -46.85834771 22.80921777 -44.4765625 21.5234375 C-43.35435303 20.91991455 -42.23214355 20.3163916 -41.07592773 19.69458008 C-37.28444134 17.60578675 -33.63183345 15.35183361 -30 13 C-6.86816654 -1.24305025 -6.86816654 -1.24305025 0 0 Z " fill="#112E26" transform="translate(178,280)"/>
<path d="M0 0 C0.8650415 0.48251221 1.73008301 0.96502441 2.62133789 1.4621582 C3.59022949 2.00203369 4.55912109 2.54190918 5.55737305 3.09814453 C10.53013981 5.92676046 15.47393925 8.80235921 20.40649414 11.70043945 C29.57924203 17.07759396 29.57924203 17.07759396 38.81005859 22.35400391 C55.57692419 31.81583318 55.57692419 31.81583318 59.59399414 37.82543945 C60.10192871 41.24035645 60.10192871 41.24035645 60.11157227 45.19848633 C60.12208618 46.28481102 60.12208618 46.28481102 60.1328125 47.39308167 C60.15035852 49.77717908 60.13878288 52.16008084 60.12524414 54.54418945 C60.12794006 56.20658597 60.13182331 57.86898094 60.13684082 59.53137207 C60.14273123 63.01154629 60.13418796 66.49130922 60.11547852 69.97143555 C60.09268886 74.42711883 60.10581444 78.88183833 60.12976837 83.33748627 C60.14423893 86.76909618 60.13961468 90.20047848 60.1292572 93.63209534 C60.12659337 95.27470515 60.12984759 96.91733578 60.13917542 98.55992126 C60.14936224 100.85796658 60.13381262 103.15446236 60.11157227 105.45239258 C60.10838989 106.75857544 60.10520752 108.0647583 60.10192871 109.41052246 C59.50988836 113.3908947 58.39847236 114.9972203 55.59399414 117.82543945 C52.92993164 119.6340332 52.92993164 119.6340332 49.96899414 121.26293945 C48.3737793 122.15625977 48.3737793 122.15625977 46.74633789 123.06762695 C45.70606445 123.64770508 44.66579102 124.2277832 43.59399414 124.82543945 C41.90213951 125.8390394 40.21430984 126.8594025 38.53149414 127.88793945 C35.25283663 129.8655424 31.9399168 131.74095939 28.56665039 133.55200195 C21.22309853 137.53994405 14.04512844 141.8029619 6.85180664 146.05395508 C5.82829102 146.65530273 4.80477539 147.25665039 3.75024414 147.8762207 C2.83049805 148.41931885 1.91075195 148.96241699 0.96313477 149.52197266 C-3.12228078 151.76970901 -6.81794867 152.64384965 -11.40600586 151.82543945 C-22.18999518 147.67775125 -32.25077201 140.84097673 -42.21459961 135.05883789 C-50.15102548 130.59194579 -58.52692576 129.65084222 -67.46850586 131.51293945 C-76.80988976 134.15532295 -83.23988279 140.64986311 -88.29272461 148.6652832 C-91.38800186 154.67120712 -91.68684106 159.99717937 -91.67944336 166.60668945 C-91.69972551 168.51945579 -91.72057616 170.43221618 -91.74194336 172.3449707 C-91.76455705 175.34030214 -91.78102527 178.33539758 -91.78686523 181.33081055 C-91.79640039 184.23569632 -91.83017841 187.13953835 -91.86694336 190.04418945 C-91.86189789 190.93497192 -91.85685242 191.82575439 -91.85165405 192.74353027 C-91.93861891 198.25830379 -92.71839948 201.45695915 -96.40600586 205.82543945 C-98.81616211 207.73168945 -98.81616211 207.73168945 -101.46850586 209.32543945 C-102.7543457 210.1143457 -102.7543457 210.1143457 -104.06616211 210.91918945 C-106.87075373 212.51993882 -109.69204925 214.07228624 -112.53100586 215.6105957 C-118.54059215 218.87414691 -124.44591636 222.30205575 -130.34350586 225.76293945 C-136.37084961 229.2902832 -136.37084961 229.2902832 -139.35473633 231.03588867 C-141.4813394 232.28312827 -143.60515589 233.5351261 -145.72680664 234.79077148 C-146.79785645 235.42225098 -147.86890625 236.05373047 -148.97241211 236.7043457 C-149.94251221 237.27870361 -150.9126123 237.85306152 -151.91210938 238.44482422 C-156.23603546 240.83853954 -159.49865609 241.30034427 -164.40600586 240.82543945 C-167.6077399 239.50707838 -170.46415441 237.63985058 -173.40600586 235.82543945 C-175.45566516 234.60699551 -177.51067484 233.39793951 -179.56665039 232.19018555 C-180.9968539 231.34909343 -182.42506654 230.50460256 -183.85083008 229.65600586 C-187.77182093 227.33030656 -191.72685432 225.08931467 -195.73413086 222.9152832 C-201.46762643 219.80462043 -207.14020548 216.60099388 -212.78100586 213.32543945 C-214.21766602 212.51139648 -214.21766602 212.51139648 -215.68334961 211.6809082 C-216.61018555 211.14079102 -217.53702148 210.60067383 -218.49194336 210.04418945 C-219.31742676 209.56916992 -220.14291016 209.09415039 -220.9934082 208.60473633 C-225.33272901 205.40447625 -228.07153826 202.64139228 -229.0476532 197.34169006 C-229.05464737 196.06152512 -229.06164154 194.78136017 -229.06884766 193.46240234 C-229.07921555 192.75100601 -229.08958344 192.03960968 -229.1002655 191.30665588 C-229.12722937 188.96987148 -229.11769789 186.63497821 -229.10522461 184.2980957 C-229.11113817 182.66433696 -229.11838684 181.03058255 -229.12690735 179.39683533 C-229.1387694 175.9780311 -229.13211149 172.55987864 -229.11279297 169.14111328 C-229.08991803 164.77159339 -229.11667758 160.40401973 -229.15785503 156.03469181 C-229.18349918 152.66213396 -229.18083525 149.29003765 -229.16996193 145.91741753 C-229.16848045 144.3071459 -229.17610489 142.69683799 -229.19321251 141.08665657 C-229.31900678 126.95270169 -229.31900678 126.95270169 -225.53369141 122.40551758 C-222.80443252 119.89055724 -219.81343741 117.9960299 -216.53100586 116.26293945 C-215.30462967 115.59702146 -214.079468 114.92886412 -212.85522461 114.2590332 C-212.16477051 113.88504395 -211.47431641 113.51105469 -210.76293945 113.12573242 C-205.9065626 110.44652555 -201.13146494 107.62445165 -196.34350586 104.82543945 C-195.30097656 104.21780762 -194.25844727 103.61017578 -193.18432617 102.98413086 C-186.72438098 99.2105501 -180.31705757 95.37149593 -173.99194336 91.3762207 C-167.87815137 87.70979258 -163.51318749 85.70579577 -156.40600586 86.82543945 C-154.30029297 87.79003906 -154.30029297 87.79003906 -152.18334961 89.0402832 C-151.4022583 89.49322754 -150.62116699 89.94617188 -149.81640625 90.4128418 C-149.02097412 90.87899902 -148.22554199 91.34515625 -147.40600586 91.82543945 C-145.88493 92.67473508 -144.36151678 93.51985929 -142.83569336 94.3605957 C-141.31746419 95.20304362 -139.79923503 96.04549154 -138.28100586 96.88793945 C-137.52174805 97.30881836 -136.76249023 97.72969727 -135.98022461 98.16333008 C-132.48887347 100.10130037 -129.00816111 102.05155093 -125.55444336 104.0559082 C-117.32784422 108.67954271 -108.33321605 109.04358961 -99.28100586 106.76293945 C-91.19264719 104.02395631 -84.49012553 98.31835192 -80.40600586 90.82543945 C-76.89464861 83.24208808 -76.28983613 76.02784059 -76.40600586 67.77075195 C-76.40716405 66.00382477 -76.40578308 64.23689443 -76.40209961 62.4699707 C-76.39768273 59.70844126 -76.40600832 56.95030711 -76.45727539 54.18920898 C-76.71703167 38.87452551 -76.71703167 38.87452551 -73.53125 33.89526367 C-71.25795668 31.82380369 -69.09712087 30.30102863 -66.40600586 28.82543945 C-64.98094727 27.92438477 -64.98094727 27.92438477 -63.52709961 27.00512695 C-62.64151367 26.57458008 -61.75592773 26.1440332 -60.84350586 25.70043945 C-54.20415413 22.30246935 -47.77631529 18.59942037 -41.34350586 14.82543945 C-40.35084717 14.24391113 -39.35818848 13.66238281 -38.33544922 13.06323242 C-36.36405149 11.90763586 -34.39293987 10.75155104 -32.42211914 9.5949707 C-29.24731448 7.7323364 -26.07166604 5.87117953 -22.89428711 4.01293945 C-21.45049683 3.16795898 -21.45049683 3.16795898 -19.97753906 2.3059082 C-13.0803959 -1.66487658 -7.56955003 -3.69529225 0 0 Z " fill="#03384A" transform="translate(335.406005859375,16.174560546875)"/>
</svg>
